#tb 0: 417083/10000000
0,          0,          0,        1,  1843200, 0x09f24bd5
0,          1,          1,        1,  1843200, 0x8c932d04
0,          2,          2,        1,  1843200, 0xe04904a0
0,          3,          3,        1,  1843200, 0x1969f383
0,          4,          4,        1,  1843200, 0x70781331
0,          5,          5,        1,  1843200, 0xf494496b
0,          6,          6,        1,  1843200, 0xf6226da2
0,          7,          7,        1,  1843200, 0x5d657925
0,          8,          8,        1,  1843200, 0xde15820d
0,          9,          9,        1,  1843200, 0xb6768df1
0,         10,         10,        1,  1843200, 0xc4318e08
0,         11,         11,        1,  1843200, 0x8530a7d5
0,         12,         12,        1,  1843200, 0x0ee29f10
0,         13,         13,        1,  1843200, 0xcbb6b185
0,         14,         14,        1,  1843200, 0x085aac47
0,         15,         15,        1,  1843200, 0xb42e7b1b
0,         16,         16,        1,  1843200, 0xea3a2cd6
0,         17,         17,        1,  1843200, 0x7600ee09
0,         18,         18,        1,  1843200, 0xe39fc9d4
0,         19,         19,        1,  1843200, 0xc122cd4c
0,         20,         20,        1,  1843200, 0x5fb4c1cb
0,         21,         21,        1,  1843200, 0x1552cb6c
0,         22,         22,        1,  1843200, 0x5b66ce2f
0,         23,         23,        1,  1843200, 0x70a8c318
0,         24,         24,        1,  1843200, 0x8b86af2d
0,         25,         25,        1,  1843200, 0x94886a49
0,         26,         26,        1,  1843200, 0xda05684f
0,         27,         27,        1,  1843200, 0xe57c8f33
0,         28,         28,        1,  1843200, 0x39ef9c7e
0,         29,         29,        1,  1843200, 0xe7a0cab8
0,         30,         30,        1,  1843200, 0x43f0d766
0,         31,         31,        1,  1843200, 0x733d3c7b
0,         32,         32,        1,  1843200, 0x42713cea
0,         33,         33,        1,  1843200, 0xdd844e53
0,         34,         34,        1,  1843200, 0xa0875ba8
0,         35,         35,        1,  1843200, 0x318b6114
0,         36,         36,        1,  1843200, 0xcc986275
0,         37,         37,        1,  1843200, 0x14eb6704
